# xmcd
#
# Track frame offsets:
#	182
#	18575
#	35897
#	51755
#	73940
#	93832
#	111707
#	139247
#	157050
#	180555
#	202870
#	227370
#
# Disc length: 3322 seconds
#
# Revision: 1
# Processed by: cddbd v1.5PL3 Copyright (c) Steve Scherf et al.
# Submitted via: dBpowerAMP V4.0
#
DISCID=aa0cf80c
DTITLE=CliveGriffin - StepByStep;Fontana,Polygram842-001-2
DYEAR=1989
DGENRE=blues
TTITLE0=WayWeTouch[USversion](CGriffin,RNiles,JJBelle;1989,CliveGriffin)
TTITLE1=LonelyLady[USversion](CGriffin,RNiles;1989,CliveGriffin)
TTITLE2=BeThere[USversion](CGriffin,RNiles,JBailey;1989,CliveGriffin)
TTITLE3=DancingAfterDark[USversion](CGriffin,RNiles,JBailey;1989,CliveGriffin)
TTITLE4=InAnotherLifetime[USversion](CGriffin,RNiles;1989,CliveGriffin)
TTITLE5=Don'tMakeMeWait[USversion](CGriffin,RNiles,BWalker;1989,CliveGriffin)
TTITLE6=HeadAboveWater[USversion](CGriffin,RNiles;1989,CliveGriffin)
TTITLE7=TryToBeHappy[USversion](CGriffin,RNiles;1989,CliveGriffin)
TTITLE8=ByHeart[USversion](CGriffin,RNiles,JBailey;1989,CliveGriffin)
TTITLE9=LoveStreet[USversion](CGriffin,RNiles;1989,CliveGriffin)
TTITLE10=StepByStep[USversion](CGriffin,RNiles;1989,CliveGriffin)
TTITLE11=NeverTooLate[USversion](CGriffin,RNiles;1989,CliveGriffin)
EXTD=more info\ncorrected
EXTT0=
EXTT1=
EXTT2=
EXTT3=
EXTT4=
EXTT5=
EXTT6=
EXTT7=
EXTT8=
EXTT9=
EXTT10=
EXTT11=
PLAYORDER=
